<?xml version="1.0" encoding="UTF-8"?>
<!DOCTYPE svg PUBLIC "-//W3C//DTD SVG 1.1//EN" "http://www.w3.org/Graphics/SVG/1.1/DTD/svg11.dtd">
<svg xmlns="http://www.w3.org/2000/svg" version="1.1" width="892px" height="283px" style="shape-rendering:geometricPrecision; text-rendering:geometricPrecision; image-rendering:optimizeQuality; fill-rule:evenodd; clip-rule:evenodd" xmlns:xlink="http://www.w3.org/1999/xlink">
<g><path style="opacity:0.971" fill="#fefffe" d="M 111.5,58.5 C 128.214,55.6074 140.381,61.6074 148,76.5C 155.982,97.2155 156.649,118.216 150,139.5C 142.189,167.659 127.022,190.826 104.5,209C 74.5497,225.097 55.0497,216.931 46,184.5C 41.5734,137.876 56.7401,99.043 91.5,68C 97.8737,63.9775 104.54,60.8108 111.5,58.5 Z M 110.5,107.5 C 116.732,107.557 120.898,110.557 123,116.5C 128.189,139.914 122.689,160.414 106.5,178C 98.393,183.748 90.2264,183.914 82,178.5C 76.7006,169.266 76.0339,159.599 80,149.5C 84.5676,135.191 92.0676,122.691 102.5,112C 105.099,110.205 107.766,108.705 110.5,107.5 Z"/></g>
<g><path style="opacity:0.972" fill="#fefffe" d="M 747.5,61.5 C 748.5,61.5 749.5,61.5 750.5,61.5C 749.951,73.8484 749.118,86.1817 748,98.5C 736.501,99.9588 725.001,101.625 713.5,103.5C 711.074,109.958 709.408,116.625 708.5,123.5C 718.833,121.5 729.167,119.5 739.5,117.5C 738.789,126.829 738.123,136.162 737.5,145.5C 726.144,147.471 714.81,149.638 703.5,152C 701.912,156.686 700.912,161.519 700.5,166.5C 712.471,164.647 724.471,162.98 736.5,161.5C 735.453,173.827 734.453,186.16 733.5,198.5C 709.484,201.37 685.817,206.037 662.5,212.5C 662.167,211.667 661.833,210.833 661.5,210C 667.449,174.474 673.449,138.974 679.5,103.5C 678.833,103.167 678.167,102.833 677.5,102.5C 672.863,103.22 668.197,103.72 663.5,104C 661.939,104.318 660.772,105.151 660,106.5C 652.44,138.526 646.607,170.86 642.5,203.5C 631.833,206.5 621.167,209.5 610.5,212.5C 609.353,210.235 609.186,207.902 610,205.5C 615.718,173.191 621.218,140.858 626.5,108.5C 620.753,109.236 615.086,110.403 609.5,112C 594.844,130.99 577.344,146.823 557,159.5C 554.01,174.083 551.51,188.75 549.5,203.5C 539.5,206.5 529.5,209.5 519.5,212.5C 519.167,211.5 518.833,210.5 518.5,209.5C 527.258,163.953 535.258,118.286 542.5,72.5C 558.467,67.5735 574.8,64.5735 591.5,63.5C 598.038,63.5896 604.371,64.7562 610.5,67C 613.333,68.5 615.5,70.6667 617,73.5C 640.372,70.0696 663.872,67.403 687.5,65.5C 687.5,67.1667 687.5,68.8333 687.5,70.5C 707.715,68.0417 727.715,65.0417 747.5,61.5 Z M 575.5,102.5 C 579.635,101.89 583.301,102.723 586.5,105C 581.201,113.8 573.867,120.3 564.5,124.5C 564.452,118.863 565.286,113.196 567,107.5C 567.374,106.584 567.874,105.75 568.5,105C 571.004,104.302 573.337,103.469 575.5,102.5 Z"/></g>
<g><path style="opacity:0.969" fill="#fefffe" d="M 381.5,63.5 C 397.567,61.4492 409.4,67.4492 417,81.5C 417.502,78.4869 418.002,75.4869 418.5,72.5C 434.829,67.7011 451.496,64.7011 468.5,63.5C 477.84,62.8914 486.006,65.5581 493,71.5C 496.654,82.364 495.988,93.0307 491,103.5C 488.394,108.435 485.394,113.102 482,117.5C 475.624,123.708 469.458,130.041 463.5,136.5C 469.785,151.071 476.618,165.404 484,179.5C 491.136,144.021 497.636,108.354 503.5,72.5C 514.595,71.0143 525.595,69.0143 536.5,66.5C 536.833,67.3333 537.167,68.1667 537.5,69C 525.927,113.532 516.927,158.532 510.5,204C 500.407,206.531 490.407,209.365 480.5,212.5C 480.167,211.667 479.833,210.833 479.5,210C 481.456,201.565 482.623,193.065 483,184.5C 473.65,193.351 464.15,202.018 454.5,210.5C 447.382,193.319 440.549,175.986 434,158.5C 430.589,173.292 427.923,188.292 426,203.5C 415.833,206.418 405.667,209.418 395.5,212.5C 395.167,211.833 394.833,211.167 394.5,210.5C 401.563,170.785 408.397,131.118 415,91.5C 408.624,97.7078 402.458,104.041 396.5,110.5C 390.503,105.852 384.17,105.352 377.5,109C 359.714,125.388 351.548,145.554 353,169.5C 360.565,182.386 370.065,183.886 381.5,174C 383.647,170.885 386.147,168.052 389,165.5C 391.322,173.122 393.489,180.789 395.5,188.5C 383.455,206.354 366.789,213.521 345.5,210C 335.631,205.796 328.797,198.629 325,188.5C 322.056,181.113 320.389,173.447 320,165.5C 309.014,189.909 290.847,206.409 265.5,215C 257.321,216.102 249.321,215.435 241.5,213C 239.187,212.359 237.52,211.026 236.5,209C 241.166,197.169 246.499,185.669 252.5,174.5C 266.257,180.943 278.757,178.943 290,168.5C 291.877,166.209 291.71,164.209 289.5,162.5C 287.427,161.531 285.261,160.865 283,160.5C 272.705,162.426 262.372,164.092 252,165.5C 239.7,165.2 233.367,158.867 233,146.5C 229.599,165.476 226.432,184.476 223.5,203.5C 213.218,206.877 202.884,209.711 192.5,212C 187.6,198.469 182.6,184.969 177.5,171.5C 174.6,185.03 172.6,198.696 171.5,212.5C 161.121,215.293 150.787,218.293 140.5,221.5C 140.167,220.5 139.833,219.5 139.5,218.5C 147.965,170.176 156.298,121.843 164.5,73.5C 175.885,71.4231 187.218,69.0897 198.5,66.5C 199.333,83.1567 199.833,99.8233 200,116.5C 200.414,126.229 201.414,135.896 203,145.5C 207.606,121.535 212.106,97.5345 216.5,73.5C 227.472,71.039 238.472,68.7056 249.5,66.5C 249.833,67.1667 250.167,67.8333 250.5,68.5C 244.208,91.9923 239.041,115.659 235,139.5C 238.003,129.828 242.336,120.828 248,112.5C 258.701,98.2559 270.867,85.4226 284.5,74C 291.73,68.8846 299.73,65.7179 308.5,64.5C 316.885,65.0557 322.052,69.389 324,77.5C 325.944,87.8552 325.944,98.1886 324,108.5C 314.423,112.872 304.59,116.539 294.5,119.5C 293.988,110.745 289.988,108.578 282.5,113C 274.848,117.311 271.514,123.645 272.5,132C 274.534,133.006 276.7,133.506 279,133.5C 289.064,131.252 299.23,130.419 309.5,131C 315.665,131.653 319.832,134.82 322,140.5C 327.768,111.436 342.268,87.9364 365.5,70C 370.744,67.315 376.077,65.1484 381.5,63.5 Z M 454.5,101.5 C 461.381,101.39 463.214,104.39 460,110.5C 454.299,118.198 447.299,124.531 439,129.5C 440.01,121.455 441.676,113.455 444,105.5C 447.415,103.644 450.915,102.311 454.5,101.5 Z"/></g>
<g><path style="opacity:0.97" fill="#fefffe" d="M 800.5,63.5 C 833.815,62.1062 842.982,76.4396 828,106.5C 820.782,117.887 811.949,127.887 801.5,136.5C 808.395,151.289 815.561,165.956 823,180.5C 823.667,181.5 823.667,182.5 823,183.5C 813.298,192.87 803.298,201.87 793,210.5C 785.617,193.026 778.617,175.359 772,157.5C 769.174,172.787 766.674,188.121 764.5,203.5C 754.5,206.5 744.5,209.5 734.5,212.5C 733.353,210.235 733.186,207.902 734,205.5C 741.667,161.5 749.333,117.5 757,73.5C 771.269,68.6826 785.769,65.3493 800.5,63.5 Z M 792.5,101.5 C 800.348,101.53 802.182,104.863 798,111.5C 792.578,118.924 785.912,124.924 778,129.5C 778.59,121.55 780.09,113.716 782.5,106C 782.905,105.055 783.572,104.388 784.5,104C 787.379,103.454 790.046,102.621 792.5,101.5 Z"/></g>
</svg>
